<svg xmlns="http://www.w3.org/2000/svg" xmlns:xlink="http://www.w3.org/1999/xlink" width="500" zoomAndPan="magnify" viewBox="0 0 375 374.999991" height="500" preserveAspectRatio="xMidYMid meet" version="1.0"><defs><clipPath id="b9be6fd607"><path d="M 100 19.484375 L 275 19.484375 L 275 193 L 100 193 Z M 100 19.484375 " clip-rule="nonzero"/></clipPath><clipPath id="705498def1"><path d="M 21.445312 210 L 353.695312 210 L 353.695312 355.484375 L 21.445312 355.484375 Z M 21.445312 210 " clip-rule="nonzero"/></clipPath></defs><g clip-path="url(#b9be6fd607)"><path fill="#ffffff" d="M 187.488281 192.8125 C 235.21875 192.8125 274.058594 153.984375 274.058594 106.246094 C 274.058594 58.507812 235.21875 19.6875 187.488281 19.6875 C 139.761719 19.6875 100.921875 58.515625 100.921875 106.253906 C 100.921875 153.992188 139.75 192.824219 187.488281 192.824219 Z M 187.488281 37.0625 C 225.636719 37.0625 256.671875 68.097656 256.671875 106.246094 C 256.671875 144.390625 225.636719 175.429688 187.488281 175.429688 C 149.34375 175.429688 118.308594 144.390625 118.308594 106.246094 C 118.308594 68.097656 149.332031 37.0625 187.488281 37.0625 Z M 187.488281 37.0625 " fill-opacity="1" fill-rule="nonzero"/></g><g clip-path="url(#705498def1)"><path fill="#ffffff" d="M 281.199219 210.640625 L 93.777344 210.640625 C 53.894531 210.640625 21.445312 243.078125 21.445312 282.964844 C 21.445312 322.847656 53.894531 355.296875 93.777344 355.296875 L 281.199219 355.296875 C 321.085938 355.296875 353.535156 322.847656 353.535156 282.964844 C 353.535156 243.078125 321.085938 210.628906 281.199219 210.628906 Z M 281.199219 337.921875 L 93.777344 337.921875 C 63.476562 337.921875 38.832031 313.265625 38.832031 282.972656 C 38.832031 252.679688 63.484375 228.023438 93.777344 228.023438 L 281.199219 228.023438 C 311.503906 228.023438 336.148438 252.679688 336.148438 282.972656 C 336.148438 313.265625 311.496094 337.921875 281.199219 337.921875 Z M 281.199219 337.921875 " fill-opacity="1" fill-rule="nonzero"/></g></svg>