<svg xmlns="http://www.w3.org/2000/svg" xmlns:xlink="http://www.w3.org/1999/xlink" width="500" zoomAndPan="magnify" viewBox="0 0 375 374.999991" height="500" preserveAspectRatio="xMidYMid meet" version="1.0"><defs><clipPath id="065c484429"><path d="M 10.722656 20 L 363.972656 20 L 363.972656 250 L 10.722656 250 Z M 10.722656 20 " clip-rule="nonzero"/></clipPath></defs><g clip-path="url(#065c484429)"><path fill="#ffffff" d="M 329.046875 81.683594 L 121.242188 81.683594 C 120.519531 81.683594 119.804688 81.753906 119.09375 81.894531 C 118.386719 82.035156 117.699219 82.246094 117.03125 82.519531 C 116.363281 82.796875 115.726562 83.136719 115.125 83.539062 C 114.527344 83.941406 113.96875 84.394531 113.457031 84.90625 C 112.945312 85.417969 112.492188 85.976562 112.089844 86.574219 C 111.6875 87.175781 111.347656 87.8125 111.070312 88.480469 C 110.796875 89.148438 110.585938 89.835938 110.445312 90.542969 C 110.304688 91.253906 110.234375 91.96875 110.234375 92.691406 C 110.234375 93.414062 110.304688 94.132812 110.445312 94.839844 C 110.585938 95.550781 110.796875 96.238281 111.070312 96.90625 C 111.347656 97.574219 111.6875 98.207031 112.089844 98.808594 C 112.492188 99.410156 112.945312 99.964844 113.457031 100.476562 C 113.96875 100.988281 114.527344 101.445312 115.125 101.847656 C 115.726562 102.246094 116.363281 102.585938 117.03125 102.863281 C 117.699219 103.140625 118.386719 103.347656 119.09375 103.488281 C 119.804688 103.632812 120.519531 103.703125 121.242188 103.703125 L 329.046875 103.703125 C 329.554688 103.699219 330.0625 103.734375 330.566406 103.796875 C 331.070312 103.859375 331.566406 103.957031 332.058594 104.085938 C 332.550781 104.210938 333.03125 104.371094 333.503906 104.558594 C 333.972656 104.746094 334.433594 104.964844 334.875 105.210938 C 335.320312 105.460938 335.746094 105.734375 336.152344 106.035156 C 336.5625 106.335938 336.949219 106.664062 337.316406 107.015625 C 337.683594 107.363281 338.027344 107.738281 338.347656 108.132812 C 338.667969 108.527344 338.960938 108.941406 339.226562 109.371094 C 339.496094 109.804688 339.734375 110.253906 339.941406 110.714844 C 340.152344 111.175781 340.332031 111.652344 340.480469 112.136719 C 340.632812 112.621094 340.75 113.113281 340.835938 113.613281 C 340.921875 114.117188 340.976562 114.621094 341 115.125 C 341.023438 115.632812 341.011719 116.140625 340.96875 116.648438 C 340.929688 117.152344 340.855469 117.65625 340.746094 118.152344 C 340.640625 118.648438 340.503906 119.136719 340.335938 119.613281 C 340.167969 120.09375 339.96875 120.5625 339.742188 121.015625 C 327.160156 146.265625 309.191406 202.597656 300.222656 220.527344 C 299.726562 221.519531 299.101562 222.425781 298.355469 223.242188 C 297.605469 224.0625 296.757812 224.765625 295.8125 225.347656 C 294.867188 225.929688 293.863281 226.375 292.792969 226.675781 C 291.726562 226.980469 290.636719 227.132812 289.527344 227.132812 L 136.542969 227.132812 C 135.34375 227.132812 134.171875 226.957031 133.023438 226.605469 C 131.875 226.253906 130.804688 225.742188 129.8125 225.070312 C 128.820312 224.398438 127.949219 223.59375 127.199219 222.65625 C 126.445312 221.722656 125.851562 220.695312 125.40625 219.582031 C 125.40625 219.457031 90.996094 65.074219 90.996094 65.074219 C 90.648438 63.507812 90.234375 61.957031 89.757812 60.425781 C 89.28125 58.890625 88.738281 57.382812 88.132812 55.894531 C 87.527344 54.410156 86.859375 52.949219 86.128906 51.519531 C 85.402344 50.089844 84.613281 48.691406 83.765625 47.328125 C 82.917969 45.964844 82.015625 44.640625 81.054688 43.351562 C 80.09375 42.066406 79.082031 40.820312 78.019531 39.621094 C 76.953125 38.417969 75.839844 37.265625 74.675781 36.15625 C 73.515625 35.050781 72.308594 33.992188 71.054688 32.988281 C 69.804688 31.984375 68.511719 31.03125 67.179688 30.136719 C 65.847656 29.242188 64.480469 28.402344 63.078125 27.621094 C 61.675781 26.84375 60.242188 26.121094 58.777344 25.464844 C 57.3125 24.804688 55.824219 24.207031 54.308594 23.675781 C 52.792969 23.140625 51.261719 22.675781 49.707031 22.269531 C 48.152344 21.867188 46.585938 21.53125 45 21.261719 C 43.417969 20.988281 41.828125 20.785156 40.230469 20.652344 C 38.628906 20.515625 37.027344 20.445312 35.421875 20.445312 L 21.746094 20.445312 C 21.011719 20.414062 20.28125 20.453125 19.558594 20.574219 C 18.832031 20.691406 18.128906 20.882812 17.445312 21.148438 C 16.757812 21.414062 16.109375 21.746094 15.496094 22.148438 C 14.878906 22.546875 14.3125 23.007812 13.792969 23.527344 C 13.277344 24.046875 12.816406 24.613281 12.414062 25.230469 C 12.015625 25.84375 11.683594 26.496094 11.417969 27.179688 C 11.152344 27.863281 10.964844 28.570312 10.847656 29.292969 C 10.730469 30.019531 10.6875 30.746094 10.722656 31.480469 C 10.722656 32.203125 10.796875 32.917969 10.9375 33.625 C 11.082031 34.335938 11.289062 35.023438 11.566406 35.691406 C 11.84375 36.355469 12.183594 36.992188 12.585938 37.589844 C 12.988281 38.191406 13.445312 38.746094 13.953125 39.257812 C 14.464844 39.769531 15.019531 40.226562 15.621094 40.628906 C 16.222656 41.027344 16.855469 41.367188 17.523438 41.644531 C 18.191406 41.921875 18.878906 42.132812 19.585938 42.273438 C 20.292969 42.417969 21.007812 42.488281 21.730469 42.488281 L 35.421875 42.488281 C 36.40625 42.488281 37.386719 42.53125 38.367188 42.613281 C 39.347656 42.695312 40.320312 42.820312 41.289062 42.984375 C 42.261719 43.152344 43.222656 43.355469 44.171875 43.601562 C 45.125 43.847656 46.066406 44.132812 46.992188 44.460938 C 47.921875 44.785156 48.835938 45.152344 49.730469 45.554688 C 50.628906 45.957031 51.507812 46.394531 52.367188 46.875 C 53.226562 47.351562 54.066406 47.863281 54.882812 48.410156 C 55.699219 48.957031 56.492188 49.539062 57.257812 50.15625 C 58.027344 50.769531 58.765625 51.414062 59.480469 52.09375 C 60.191406 52.769531 60.875 53.476562 61.527344 54.210938 C 62.183594 54.949219 62.804688 55.707031 63.394531 56.496094 C 63.980469 57.285156 64.535156 58.09375 65.058594 58.929688 C 65.578125 59.765625 66.0625 60.621094 66.507812 61.496094 C 66.957031 62.371094 67.367188 63.261719 67.742188 64.171875 C 68.113281 65.082031 68.449219 66.007812 68.742188 66.945312 C 69.035156 67.882812 69.292969 68.832031 69.503906 69.792969 L 104.019531 224.839844 C 104.105469 225.195312 104.207031 225.570312 104.320312 225.921875 C 104.878906 227.605469 105.566406 229.230469 106.382812 230.804688 C 107.195312 232.375 108.128906 233.875 109.179688 235.304688 C 110.226562 236.730469 111.382812 238.066406 112.640625 239.3125 C 113.898438 240.558594 115.246094 241.699219 116.683594 242.738281 C 118.121094 243.773438 119.628906 244.691406 121.210938 245.488281 C 122.789062 246.289062 124.421875 246.960938 126.109375 247.507812 C 127.792969 248.050781 129.511719 248.460938 131.261719 248.734375 C 133.011719 249.011719 134.769531 249.148438 136.542969 249.148438 L 289.527344 249.148438 C 291.097656 249.148438 292.660156 249.042969 294.214844 248.824219 C 295.769531 248.609375 297.300781 248.285156 298.8125 247.855469 C 300.320312 247.425781 301.792969 246.894531 303.230469 246.261719 C 304.667969 245.628906 306.054688 244.898438 307.390625 244.074219 C 308.722656 243.25 309.996094 242.335938 311.203125 241.332031 C 312.414062 240.332031 313.546875 239.25 314.605469 238.089844 C 315.664062 236.933594 316.636719 235.707031 317.527344 234.414062 C 318.414062 233.117188 319.210938 231.769531 319.914062 230.363281 C 328.871094 212.433594 346.800781 156.132812 359.433594 130.855469 C 359.753906 130.210938 360.058594 129.554688 360.335938 128.890625 C 360.617188 128.230469 360.878906 127.558594 361.117188 126.878906 C 361.351562 126.199219 361.570312 125.511719 361.765625 124.816406 C 361.957031 124.125 362.128906 123.425781 362.28125 122.71875 C 362.429688 122.015625 362.558594 121.308594 362.660156 120.59375 C 362.765625 119.882812 362.847656 119.167969 362.90625 118.449219 C 362.96875 117.730469 363.003906 117.011719 363.015625 116.292969 C 363.03125 115.570312 363.019531 114.851562 362.988281 114.132812 C 362.957031 113.414062 362.902344 112.695312 362.824219 111.980469 C 362.746094 111.261719 362.644531 110.550781 362.523438 109.839844 C 362.398438 109.128906 362.253906 108.425781 362.085938 107.726562 C 361.917969 107.023438 361.726562 106.332031 361.515625 105.640625 C 361.300781 104.953125 361.066406 104.273438 360.8125 103.597656 C 360.554688 102.925781 360.28125 102.261719 359.980469 101.605469 C 359.683594 100.949219 359.367188 100.304688 359.027344 99.667969 C 358.6875 99.03125 358.328125 98.410156 357.949219 97.796875 C 357.570312 97.183594 357.171875 96.582031 356.757812 95.996094 C 356.339844 95.410156 355.90625 94.835938 355.453125 94.273438 C 355 93.714844 354.527344 93.171875 354.039062 92.640625 C 353.550781 92.109375 353.046875 91.597656 352.527344 91.097656 C 352.007812 90.601562 351.46875 90.121094 350.917969 89.65625 C 350.367188 89.195312 349.800781 88.746094 349.222656 88.320312 C 348.644531 87.890625 348.050781 87.484375 347.445312 87.09375 C 346.839844 86.703125 346.222656 86.332031 345.59375 85.984375 C 344.964844 85.632812 344.324219 85.300781 343.675781 84.992188 C 343.023438 84.679688 342.363281 84.390625 341.695312 84.125 C 341.027344 83.855469 340.351562 83.609375 339.667969 83.382812 C 338.984375 83.160156 338.292969 82.957031 337.59375 82.773438 C 336.898438 82.59375 336.195312 82.433594 335.488281 82.296875 C 334.78125 82.160156 334.070312 82.046875 333.355469 81.957031 C 332.640625 81.867188 331.925781 81.796875 331.207031 81.75 C 330.488281 81.707031 329.769531 81.683594 329.046875 81.683594 Z M 329.046875 81.683594 " fill-opacity="1" fill-rule="evenodd"/></g><path fill="#ffffff" d="M 148.507812 262.058594 C 147.035156 262.058594 145.566406 262.132812 144.097656 262.277344 C 142.632812 262.417969 141.175781 262.636719 139.730469 262.921875 C 138.289062 263.210938 136.859375 263.566406 135.449219 263.996094 C 134.039062 264.421875 132.65625 264.917969 131.292969 265.484375 C 129.933594 266.046875 128.601562 266.675781 127.304688 267.371094 C 126.003906 268.066406 124.742188 268.820312 123.515625 269.640625 C 122.292969 270.457031 121.109375 271.335938 119.972656 272.269531 C 118.832031 273.203125 117.742188 274.191406 116.699219 275.234375 C 115.660156 276.277344 114.671875 277.367188 113.734375 278.507812 C 112.800781 279.644531 111.925781 280.828125 111.105469 282.050781 C 110.289062 283.277344 109.53125 284.539062 108.835938 285.839844 C 108.144531 287.136719 107.515625 288.46875 106.949219 289.828125 C 106.386719 291.191406 105.890625 292.574219 105.464844 293.984375 C 105.035156 295.394531 104.679688 296.824219 104.390625 298.269531 C 104.105469 299.710938 103.886719 301.167969 103.742188 302.632812 C 103.597656 304.101562 103.527344 305.570312 103.527344 307.042969 C 103.527344 308.515625 103.601562 309.988281 103.746094 311.453125 C 103.890625 312.917969 104.105469 314.375 104.394531 315.820312 C 104.679688 317.265625 105.039062 318.691406 105.464844 320.101562 C 105.894531 321.511719 106.390625 322.898438 106.953125 324.257812 C 107.515625 325.617188 108.148438 326.949219 108.839844 328.25 C 109.535156 329.546875 110.292969 330.808594 111.109375 332.035156 C 111.929688 333.257812 112.804688 334.441406 113.742188 335.578125 C 114.675781 336.71875 115.664062 337.808594 116.707031 338.851562 C 117.75 339.890625 118.839844 340.878906 119.976562 341.8125 C 121.117188 342.75 122.296875 343.625 123.523438 344.445312 C 124.75 345.261719 126.011719 346.019531 127.3125 346.710938 C 128.609375 347.40625 129.941406 348.035156 131.300781 348.597656 C 132.664062 349.164062 134.046875 349.65625 135.457031 350.085938 C 136.867188 350.511719 138.296875 350.871094 139.742188 351.15625 C 141.1875 351.445312 142.640625 351.660156 144.105469 351.804688 C 145.574219 351.949219 147.042969 352.019531 148.515625 352.019531 C 149.988281 352.019531 151.460938 351.949219 152.925781 351.804688 C 154.390625 351.65625 155.847656 351.441406 157.292969 351.152344 C 158.738281 350.867188 160.164062 350.507812 161.574219 350.082031 C 162.984375 349.652344 164.371094 349.15625 165.730469 348.59375 C 167.089844 348.027344 168.421875 347.398438 169.71875 346.703125 C 171.019531 346.007812 172.28125 345.253906 173.507812 344.433594 C 174.730469 343.617188 175.914062 342.738281 177.050781 341.804688 C 178.191406 340.867188 179.28125 339.878906 180.320312 338.839844 C 181.363281 337.796875 182.351562 336.707031 183.285156 335.566406 C 184.21875 334.425781 185.097656 333.246094 185.914062 332.019531 C 186.734375 330.796875 187.488281 329.53125 188.183594 328.234375 C 188.878906 326.933594 189.503906 325.605469 190.070312 324.242188 C 190.632812 322.882812 191.128906 321.496094 191.554688 320.085938 C 191.984375 318.675781 192.339844 317.25 192.625 315.804688 C 192.914062 314.359375 193.128906 312.902344 193.273438 311.4375 C 193.417969 309.96875 193.488281 308.5 193.488281 307.027344 C 193.488281 305.554688 193.414062 304.085938 193.269531 302.621094 C 193.125 301.15625 192.90625 299.699219 192.617188 298.253906 C 192.328125 296.8125 191.972656 295.382812 191.542969 293.976562 C 191.113281 292.566406 190.617188 291.183594 190.054688 289.820312 C 189.492188 288.460938 188.859375 287.132812 188.167969 285.832031 C 187.472656 284.535156 186.714844 283.273438 185.894531 282.050781 C 185.078125 280.824219 184.199219 279.644531 183.265625 278.503906 C 182.332031 277.367188 181.34375 276.277344 180.300781 275.234375 C 179.261719 274.195312 178.171875 273.207031 177.03125 272.273438 C 175.894531 271.339844 174.710938 270.460938 173.488281 269.644531 C 172.265625 268.828125 171.003906 268.070312 169.703125 267.375 C 168.40625 266.679688 167.074219 266.050781 165.714844 265.488281 C 164.355469 264.925781 162.96875 264.429688 161.558594 264 C 160.152344 263.574219 158.722656 263.214844 157.28125 262.925781 C 155.835938 262.640625 154.382812 262.421875 152.914062 262.277344 C 151.449219 262.132812 149.980469 262.058594 148.507812 262.058594 Z M 148.507812 330 C 147.757812 330 147.007812 329.964844 146.257812 329.890625 C 145.507812 329.816406 144.765625 329.707031 144.027344 329.5625 C 143.292969 329.414062 142.5625 329.230469 141.84375 329.011719 C 141.125 328.796875 140.417969 328.542969 139.722656 328.253906 C 139.027344 327.964844 138.347656 327.644531 137.683594 327.289062 C 137.023438 326.9375 136.378906 326.550781 135.753906 326.132812 C 135.128906 325.714844 134.523438 325.269531 133.941406 324.789062 C 133.359375 324.3125 132.804688 323.808594 132.273438 323.277344 C 131.742188 322.746094 131.238281 322.191406 130.757812 321.609375 C 130.28125 321.027344 129.835938 320.425781 129.417969 319.796875 C 129 319.171875 128.613281 318.53125 128.257812 317.867188 C 127.902344 317.203125 127.582031 316.523438 127.296875 315.828125 C 127.007812 315.136719 126.753906 314.429688 126.535156 313.707031 C 126.316406 312.988281 126.132812 312.261719 125.988281 311.523438 C 125.839844 310.785156 125.730469 310.042969 125.65625 309.292969 C 125.582031 308.546875 125.546875 307.796875 125.546875 307.042969 C 125.546875 306.292969 125.582031 305.542969 125.65625 304.792969 C 125.730469 304.042969 125.839844 303.300781 125.984375 302.5625 C 126.132812 301.828125 126.316406 301.097656 126.535156 300.378906 C 126.75 299.660156 127.003906 298.953125 127.292969 298.257812 C 127.578125 297.5625 127.902344 296.882812 128.253906 296.21875 C 128.609375 295.558594 128.996094 294.914062 129.414062 294.289062 C 129.832031 293.660156 130.277344 293.058594 130.753906 292.476562 C 131.230469 291.894531 131.734375 291.339844 132.265625 290.808594 C 132.796875 290.277344 133.355469 289.769531 133.9375 289.292969 C 134.515625 288.816406 135.121094 288.367188 135.746094 287.949219 C 136.371094 287.53125 137.015625 287.148438 137.675781 286.792969 C 138.339844 286.4375 139.019531 286.117188 139.714844 285.828125 C 140.410156 285.539062 141.117188 285.285156 141.835938 285.066406 C 142.554688 284.851562 143.285156 284.667969 144.019531 284.519531 C 144.757812 284.375 145.5 284.261719 146.25 284.1875 C 146.996094 284.113281 147.746094 284.078125 148.5 284.078125 C 149.25 284.078125 150 284.113281 150.75 284.1875 C 151.5 284.261719 152.242188 284.371094 152.980469 284.515625 C 153.714844 284.664062 154.445312 284.84375 155.164062 285.0625 C 155.882812 285.28125 156.59375 285.535156 157.285156 285.820312 C 157.980469 286.109375 158.660156 286.429688 159.324219 286.785156 C 159.988281 287.136719 160.632812 287.523438 161.257812 287.941406 C 161.882812 288.359375 162.484375 288.804688 163.066406 289.28125 C 163.648438 289.761719 164.207031 290.265625 164.738281 290.796875 C 165.269531 291.328125 165.773438 291.882812 166.25 292.464844 C 166.730469 293.046875 167.175781 293.648438 167.59375 294.273438 C 168.011719 294.898438 168.398438 295.542969 168.753906 296.207031 C 169.109375 296.867188 169.429688 297.546875 169.71875 298.242188 C 170.007812 298.9375 170.257812 299.644531 170.476562 300.363281 C 170.695312 301.082031 170.878906 301.8125 171.027344 302.546875 C 171.175781 303.285156 171.285156 304.027344 171.359375 304.777344 C 171.433594 305.523438 171.46875 306.273438 171.46875 307.027344 C 171.46875 307.777344 171.433594 308.53125 171.359375 309.277344 C 171.285156 310.027344 171.175781 310.769531 171.027344 311.507812 C 170.878906 312.246094 170.699219 312.972656 170.480469 313.691406 C 170.261719 314.414062 170.007812 315.121094 169.71875 315.8125 C 169.429688 316.507812 169.109375 317.1875 168.753906 317.851562 C 168.402344 318.515625 168.015625 319.160156 167.597656 319.785156 C 167.179688 320.410156 166.730469 321.011719 166.253906 321.59375 C 165.777344 322.175781 165.273438 322.734375 164.742188 323.265625 C 164.210938 323.796875 163.652344 324.300781 163.074219 324.777344 C 162.492188 325.253906 161.886719 325.703125 161.261719 326.121094 C 160.636719 326.539062 159.992188 326.925781 159.332031 327.28125 C 158.667969 327.636719 157.988281 327.957031 157.292969 328.246094 C 156.601562 328.535156 155.894531 328.789062 155.171875 329.007812 C 154.453125 329.226562 153.726562 329.410156 152.988281 329.554688 C 152.25 329.703125 151.507812 329.8125 150.757812 329.890625 C 150.011719 329.964844 149.261719 330 148.507812 330 Z M 148.507812 330 " fill-opacity="1" fill-rule="evenodd"/><path fill="#ffffff" d="M 273.875 262.058594 C 272.402344 262.058594 270.933594 262.132812 269.464844 262.277344 C 268 262.417969 266.542969 262.636719 265.097656 262.921875 C 263.65625 263.210938 262.226562 263.566406 260.816406 263.996094 C 259.40625 264.421875 258.023438 264.917969 256.660156 265.484375 C 255.300781 266.046875 253.96875 266.675781 252.671875 267.371094 C 251.371094 268.066406 250.109375 268.820312 248.882812 269.640625 C 247.660156 270.457031 246.476562 271.335938 245.339844 272.269531 C 244.199219 273.203125 243.109375 274.191406 242.066406 275.234375 C 241.027344 276.277344 240.039062 277.367188 239.101562 278.507812 C 238.167969 279.644531 237.292969 280.828125 236.472656 282.050781 C 235.65625 283.277344 234.898438 284.539062 234.203125 285.839844 C 233.511719 287.136719 232.882812 288.46875 232.316406 289.828125 C 231.753906 291.191406 231.257812 292.574219 230.832031 293.984375 C 230.402344 295.394531 230.046875 296.824219 229.757812 298.269531 C 229.472656 299.710938 229.253906 301.167969 229.109375 302.632812 C 228.964844 304.101562 228.894531 305.570312 228.894531 307.042969 C 228.894531 308.515625 228.96875 309.988281 229.113281 311.453125 C 229.257812 312.917969 229.472656 314.375 229.761719 315.820312 C 230.046875 317.265625 230.40625 318.691406 230.832031 320.101562 C 231.261719 321.511719 231.757812 322.898438 232.320312 324.257812 C 232.882812 325.617188 233.515625 326.949219 234.207031 328.25 C 234.902344 329.546875 235.660156 330.808594 236.476562 332.035156 C 237.296875 333.257812 238.171875 334.441406 239.109375 335.578125 C 240.042969 336.71875 241.03125 337.808594 242.074219 338.851562 C 243.117188 339.890625 244.207031 340.878906 245.34375 341.8125 C 246.484375 342.75 247.664062 343.625 248.890625 344.445312 C 250.117188 345.261719 251.378906 346.019531 252.679688 346.710938 C 253.976562 347.40625 255.308594 348.035156 256.667969 348.597656 C 258.03125 349.164062 259.414062 349.65625 260.824219 350.085938 C 262.234375 350.511719 263.664062 350.871094 265.109375 351.15625 C 266.554688 351.445312 268.007812 351.660156 269.472656 351.804688 C 270.941406 351.949219 272.410156 352.019531 273.882812 352.019531 C 275.355469 352.019531 276.828125 351.949219 278.292969 351.804688 C 279.757812 351.65625 281.214844 351.441406 282.660156 351.152344 C 284.105469 350.867188 285.53125 350.507812 286.941406 350.082031 C 288.351562 349.652344 289.738281 349.15625 291.097656 348.59375 C 292.457031 348.027344 293.789062 347.398438 295.085938 346.703125 C 296.386719 346.007812 297.648438 345.253906 298.875 344.433594 C 300.097656 343.617188 301.28125 342.738281 302.417969 341.804688 C 303.558594 340.867188 304.648438 339.878906 305.6875 338.839844 C 306.730469 337.796875 307.71875 336.707031 308.652344 335.566406 C 309.585938 334.425781 310.464844 333.246094 311.28125 332.019531 C 312.101562 330.796875 312.855469 329.53125 313.550781 328.234375 C 314.246094 326.933594 314.871094 325.605469 315.4375 324.242188 C 316 322.882812 316.496094 321.496094 316.921875 320.085938 C 317.351562 318.675781 317.707031 317.25 317.992188 315.804688 C 318.28125 314.359375 318.496094 312.902344 318.640625 311.4375 C 318.785156 309.96875 318.855469 308.5 318.855469 307.027344 C 318.855469 305.554688 318.78125 304.085938 318.636719 302.621094 C 318.492188 301.152344 318.277344 299.699219 317.988281 298.253906 C 317.699219 296.808594 317.339844 295.382812 316.914062 293.972656 C 316.484375 292.566406 315.988281 291.179688 315.425781 289.820312 C 314.859375 288.457031 314.230469 287.128906 313.535156 285.832031 C 312.84375 284.53125 312.085938 283.269531 311.265625 282.046875 C 310.449219 280.820312 309.570312 279.640625 308.636719 278.503906 C 307.703125 277.363281 306.714844 276.273438 305.671875 275.234375 C 304.632812 274.191406 303.542969 273.203125 302.402344 272.269531 C 301.265625 271.335938 300.082031 270.457031 298.859375 269.640625 C 297.632812 268.824219 296.371094 268.066406 295.074219 267.371094 C 293.773438 266.675781 292.445312 266.046875 291.082031 265.484375 C 289.722656 264.921875 288.339844 264.425781 286.929688 263.996094 C 285.519531 263.570312 284.09375 263.210938 282.648438 262.925781 C 281.203125 262.636719 279.75 262.421875 278.28125 262.277344 C 276.816406 262.132812 275.347656 262.058594 273.875 262.058594 Z M 273.875 330 C 273.125 330 272.375 329.964844 271.625 329.890625 C 270.875 329.816406 270.132812 329.707031 269.394531 329.5625 C 268.660156 329.414062 267.929688 329.230469 267.210938 329.011719 C 266.492188 328.796875 265.785156 328.542969 265.089844 328.253906 C 264.394531 327.964844 263.714844 327.644531 263.050781 327.289062 C 262.390625 326.9375 261.746094 326.550781 261.121094 326.132812 C 260.496094 325.714844 259.890625 325.269531 259.308594 324.789062 C 258.726562 324.3125 258.171875 323.808594 257.640625 323.277344 C 257.109375 322.746094 256.605469 322.191406 256.125 321.609375 C 255.648438 321.027344 255.203125 320.425781 254.785156 319.800781 C 254.367188 319.171875 253.980469 318.53125 253.625 317.867188 C 253.269531 317.203125 252.949219 316.523438 252.664062 315.828125 C 252.375 315.136719 252.121094 314.429688 251.902344 313.707031 C 251.683594 312.988281 251.5 312.261719 251.355469 311.523438 C 251.207031 310.785156 251.097656 310.042969 251.023438 309.292969 C 250.949219 308.546875 250.914062 307.796875 250.914062 307.042969 C 250.914062 306.292969 250.949219 305.542969 251.023438 304.792969 C 251.097656 304.046875 251.207031 303.300781 251.351562 302.566406 C 251.5 301.828125 251.683594 301.097656 251.902344 300.378906 C 252.117188 299.660156 252.371094 298.953125 252.660156 298.257812 C 252.945312 297.5625 253.269531 296.882812 253.621094 296.21875 C 253.976562 295.558594 254.363281 294.914062 254.78125 294.289062 C 255.199219 293.660156 255.644531 293.058594 256.121094 292.476562 C 256.597656 291.894531 257.101562 291.339844 257.632812 290.808594 C 258.164062 290.277344 258.722656 289.769531 259.304688 289.292969 C 259.882812 288.816406 260.488281 288.367188 261.113281 287.949219 C 261.738281 287.53125 262.382812 287.148438 263.042969 286.792969 C 263.707031 286.4375 264.386719 286.117188 265.082031 285.828125 C 265.777344 285.539062 266.484375 285.285156 267.203125 285.066406 C 267.921875 284.851562 268.652344 284.667969 269.386719 284.519531 C 270.125 284.375 270.867188 284.261719 271.617188 284.1875 C 272.363281 284.113281 273.113281 284.078125 273.867188 284.078125 C 274.617188 284.078125 275.367188 284.113281 276.117188 284.1875 C 276.867188 284.261719 277.609375 284.371094 278.347656 284.515625 C 279.082031 284.664062 279.8125 284.84375 280.53125 285.0625 C 281.25 285.28125 281.960938 285.535156 282.652344 285.820312 C 283.347656 286.109375 284.027344 286.429688 284.691406 286.785156 C 285.355469 287.136719 286 287.523438 286.625 287.941406 C 287.25 288.359375 287.851562 288.804688 288.433594 289.28125 C 289.015625 289.761719 289.574219 290.265625 290.105469 290.796875 C 290.636719 291.328125 291.140625 291.882812 291.617188 292.464844 C 292.097656 293.046875 292.542969 293.648438 292.960938 294.273438 C 293.378906 294.898438 293.765625 295.542969 294.121094 296.207031 C 294.476562 296.867188 294.796875 297.546875 295.085938 298.242188 C 295.375 298.9375 295.625 299.644531 295.84375 300.363281 C 296.0625 301.082031 296.246094 301.8125 296.394531 302.546875 C 296.542969 303.285156 296.652344 304.027344 296.726562 304.777344 C 296.800781 305.523438 296.835938 306.273438 296.835938 307.027344 C 296.835938 307.777344 296.800781 308.53125 296.726562 309.277344 C 296.652344 310.027344 296.542969 310.769531 296.394531 311.507812 C 296.246094 312.246094 296.066406 312.972656 295.847656 313.691406 C 295.628906 314.414062 295.375 315.121094 295.085938 315.8125 C 294.796875 316.507812 294.476562 317.1875 294.121094 317.851562 C 293.769531 318.515625 293.382812 319.160156 292.964844 319.785156 C 292.546875 320.410156 292.097656 321.011719 291.621094 321.59375 C 291.144531 322.175781 290.640625 322.734375 290.109375 323.265625 C 289.578125 323.796875 289.019531 324.300781 288.441406 324.777344 C 287.859375 325.253906 287.253906 325.703125 286.628906 326.121094 C 286.003906 326.539062 285.359375 326.925781 284.699219 327.28125 C 284.035156 327.636719 283.355469 327.957031 282.660156 328.246094 C 281.96875 328.535156 281.261719 328.789062 280.539062 329.007812 C 279.820312 329.226562 279.09375 329.410156 278.355469 329.554688 C 277.617188 329.703125 276.875 329.8125 276.125 329.890625 C 275.378906 329.964844 274.628906 330 273.875 330 Z M 273.875 330 " fill-opacity="1" fill-rule="evenodd"/></svg>