<svg xmlns="http://www.w3.org/2000/svg" xmlns:xlink="http://www.w3.org/1999/xlink" width="300" zoomAndPan="magnify" viewBox="0 0 224.87999 225" height="300" preserveAspectRatio="xMidYMid meet" version="1.0"><defs><clipPath id="426149f80b"><path d="M 14 56 L 144 56 L 144 185.964844 L 14 185.964844 Z M 14 56 " clip-rule="nonzero"/></clipPath><clipPath id="6b218e4bdb"><path d="M 143 39.042969 L 211.570312 39.042969 L 211.570312 173 L 143 173 Z M 143 39.042969 " clip-rule="nonzero"/></clipPath></defs><g clip-path="url(#426149f80b)"><path fill="#009245" d="M 143.070312 172.203125 L 142.878906 171.945312 L 142.101562 170.839844 C 141.84375 170.464844 141.585938 170.085938 141.300781 169.734375 C 139.132812 166.863281 136.894531 164.066406 134.539062 161.382812 L 132.769531 159.382812 C 132.464844 159.054688 132.183594 158.703125 131.875 158.394531 L 130.957031 157.433594 L 129.117188 155.503906 L 128.199219 154.539062 C 127.894531 154.234375 127.5625 153.925781 127.257812 153.597656 C 126.007812 152.351562 124.757812 151.105469 123.488281 149.882812 L 119.621094 146.304688 C 118.984375 145.695312 118.300781 145.128906 117.667969 144.566406 L 115.6875 142.824219 C 115.027344 142.261719 114.367188 141.671875 113.707031 141.109375 L 111.679688 139.4375 L 109.65625 137.769531 C 108.972656 137.226562 108.3125 136.640625 107.628906 136.121094 L 103.480469 132.898438 C 102.113281 131.816406 100.699219 130.804688 99.308594 129.769531 C 97.894531 128.734375 96.503906 127.699219 95.089844 126.6875 L 90.804688 123.703125 L 88.660156 122.21875 L 88.117188 121.84375 L 87.574219 121.492188 L 86.492188 120.761719 L 82.15625 117.890625 C 81.425781 117.421875 80.71875 116.925781 79.988281 116.457031 L 77.796875 115.070312 C 74.851562 113.234375 71.953125 111.351562 68.957031 109.613281 C 57.082031 102.484375 44.945312 95.898438 32.621094 89.6875 C 44.382812 96.886719 55.925781 104.414062 67.097656 112.410156 C 69.925781 114.386719 72.632812 116.457031 75.390625 118.503906 L 77.441406 120.03125 C 78.125 120.550781 78.785156 121.089844 79.46875 121.609375 L 83.523438 124.785156 L 84.535156 125.582031 L 85.03125 125.984375 L 85.523438 126.382812 L 87.503906 128.007812 L 91.460938 131.277344 C 92.757812 132.382812 94.03125 133.511719 95.328125 134.640625 C 96.625 135.769531 97.917969 136.875 99.144531 138.027344 L 102.914062 141.484375 C 103.550781 142.046875 104.140625 142.660156 104.753906 143.25 L 106.589844 145.011719 L 108.429688 146.777344 C 109.019531 147.386719 109.605469 148 110.195312 148.585938 L 111.964844 150.398438 C 112.554688 151.011719 113.164062 151.597656 113.707031 152.234375 L 117.125 155.972656 C 118.230469 157.242188 119.316406 158.515625 120.421875 159.785156 C 120.707031 160.113281 120.964844 160.417969 121.25 160.75 L 122.027344 161.738281 L 123.605469 163.6875 L 124.382812 164.675781 C 124.640625 165.007812 124.878906 165.335938 125.136719 165.664062 L 126.644531 167.664062 C 128.648438 170.320312 130.484375 173.074219 132.253906 175.847656 C 132.488281 176.203125 132.675781 176.554688 132.890625 176.90625 L 133.523438 177.964844 L 134.160156 179.023438 L 134.46875 179.542969 L 134.75 180.082031 L 135.90625 182.222656 C 136.117188 182.578125 136.28125 182.929688 136.449219 183.304688 L 136.988281 184.386719 C 137.25 184.90625 137.484375 185.421875 137.742188 185.964844 C 136.421875 185.894531 135.082031 185.824219 133.761719 185.726562 C 125.820312 185.257812 117.878906 184.765625 109.960938 184.128906 C 101.476562 183.46875 92.828125 182.929688 84.605469 180.695312 C 79.042969 179.191406 73.648438 177.097656 68.441406 174.648438 C 52.933594 167.382812 38.585938 156.84375 29.183594 142.542969 C 21.027344 130.125 16.929688 115.375 15.300781 100.601562 C 13.675781 85.832031 14.429688 70.894531 15.300781 56.054688 C 21.121094 60.757812 27.320312 64.828125 33.847656 68.402344 C 45.277344 74.683594 57.578125 79.457031 70.136719 83.621094 C 75.015625 85.242188 79.941406 86.773438 84.863281 88.253906 C 87.199219 88.960938 89.554688 89.640625 91.886719 90.347656 C 97.824219 92.089844 103.929688 93.945312 109.679688 96.371094 C 117.949219 99.828125 125.488281 104.4375 130.792969 111.542969 C 138.238281 121.515625 139.464844 133.464844 139.085938 145.484375 C 139.085938 145.53125 139.132812 146.777344 139.296875 148.824219 C 139.558594 152.046875 140.050781 157.265625 141.019531 162.84375 C 141.539062 165.851562 142.171875 168.957031 142.976562 171.898438 C 143 171.992188 143.046875 172.085938 143.070312 172.203125 Z M 143.070312 172.203125 " fill-opacity="1" fill-rule="nonzero"/></g><g clip-path="url(#6b218e4bdb)"><path fill="#39b54a" d="M 206.269531 109.164062 C 202.027344 133.652344 183.269531 158.820312 161.214844 172.25 C 161.566406 171.332031 161.898438 170.414062 162.179688 169.476562 C 163.804688 164.558594 164.867188 159.574219 165.691406 154.632812 C 167.339844 144.753906 168.023438 135.015625 170.050781 125.628906 C 170.570312 123.277344 171.15625 120.972656 171.839844 118.691406 C 172.546875 116.410156 173.347656 114.152344 174.269531 111.941406 C 176.105469 107.496094 178.34375 103.191406 180.867188 99.050781 C 185.933594 90.769531 192.011719 83.007812 198.847656 76 C 191.46875 82.492188 184.777344 89.785156 178.957031 97.804688 C 176.058594 101.828125 173.421875 106.058594 171.15625 110.53125 C 170.027344 112.765625 168.988281 115.046875 168.070312 117.398438 C 167.152344 119.75 166.351562 122.125 165.621094 124.523438 C 162.746094 134.144531 161.285156 143.976562 158.976562 153.269531 C 157.820312 157.925781 156.453125 162.464844 154.664062 166.722656 C 153.789062 168.816406 152.824219 170.816406 151.742188 172.746094 C 150.515625 162.582031 147.546875 152.679688 145.425781 142.636719 C 143.046875 131.277344 141.773438 119.257812 145.378906 108.199219 C 150.375 92.816406 163.804688 81.902344 176.953125 72.425781 C 190.128906 62.96875 204.171875 53.441406 211.570312 39.046875 C 204.738281 61.558594 210.273438 85.996094 206.269531 109.164062 Z M 206.269531 109.164062 " fill-opacity="1" fill-rule="nonzero"/></g></svg>