<!DOCTYPE svg PUBLIC "-//W3C//DTD SVG 1.1//EN" "http://www.w3.org/Graphics/SVG/1.1/DTD/svg11.dtd">
<!-- Uploaded to: SVG Repo, www.svgrepo.com, Transformed by: SVG Repo Mixer Tools -->
<svg fill="#000000" width="800px" height="800px" viewBox="-1.2 -1.2 26.40 26.40" xmlns="http://www.w3.org/2000/svg" stroke="#000000" stroke-width="0.00024000000000000003">
<g id="SVGRepo_bgCarrier" stroke-width="0"/>
<g id="SVGRepo_tracerCarrier" stroke-linecap="round" stroke-linejoin="round"/>
<g id="SVGRepo_iconCarrier">
<path fill-rule="evenodd" d="M5.962 2.513a.75.75 0 01-.475.949l-.816.272a.25.25 0 00-.171.237V21.25c0 .138.112.25.25.25h14.5a.25.25 0 00.25-.25V3.97a.25.25 0 00-.17-.236l-.817-.272a.75.75 0 01.474-1.424l.816.273A1.75 1.75 0 0121 3.97v17.28A1.75 1.75 0 0119.25 23H4.75A1.75 1.75 0 013 21.25V3.97a1.75 1.75 0 011.197-1.66l.816-.272a.75.75 0 01.949.475z"/>
<path fill-rule="evenodd" d="M7 1.75C7 .784 7.784 0 8.75 0h6.5C16.216 0 17 .784 17 1.75v1.5A1.75 1.75 0 0115.25 5h-6.5A1.75 1.75 0 017 3.25v-1.5zm1.75-.25a.25.25 0 00-.25.25v1.5c0 .138.112.25.25.25h6.5a.25.25 0 00.25-.25v-1.5a.25.25 0 00-.25-.25h-6.5z"/>
</g>
</svg>