<svg xmlns="http://www.w3.org/2000/svg" xmlns:xlink="http://www.w3.org/1999/xlink" width="500" zoomAndPan="magnify" viewBox="0 0 375 374.999991" height="500" preserveAspectRatio="xMidYMid meet" version="1.0"><defs><clipPath id="1d08b01111"><path d="M 44 27 L 344.960938 27 L 344.960938 360 L 44 360 Z M 44 27 " clip-rule="nonzero"/></clipPath></defs><g clip-path="url(#1d08b01111)"><path fill="#ffffff" d="M 341.359375 339.988281 L 268.984375 244.289062 C 270.835938 242.28125 272.621094 240.210938 274.339844 238.085938 C 276.054688 235.964844 277.707031 233.785156 279.285156 231.558594 C 280.867188 229.328125 282.375 227.050781 283.808594 224.726562 C 285.246094 222.402344 286.605469 220.035156 287.890625 217.625 C 289.175781 215.214844 290.386719 212.765625 291.515625 210.277344 C 292.644531 207.789062 293.695312 205.269531 294.664062 202.714844 C 295.636719 200.160156 296.523438 197.578125 297.332031 194.96875 C 298.136719 192.355469 298.859375 189.722656 299.5 187.066406 C 300.136719 184.410156 300.691406 181.734375 301.160156 179.042969 C 301.632812 176.351562 302.015625 173.648438 302.3125 170.933594 C 302.609375 168.21875 302.824219 165.496094 302.949219 162.765625 C 303.074219 160.035156 303.109375 157.304688 303.0625 154.574219 C 303.015625 151.839844 302.878906 149.113281 302.660156 146.390625 C 302.4375 143.667969 302.128906 140.953125 301.738281 138.25 C 301.34375 135.546875 300.863281 132.859375 300.300781 130.183594 C 299.738281 127.511719 299.089844 124.859375 298.355469 122.226562 C 297.625 119.59375 296.808594 116.988281 295.910156 114.40625 C 295.011719 111.824219 294.035156 109.277344 292.976562 106.757812 C 291.914062 104.238281 290.777344 101.757812 289.558594 99.3125 C 288.34375 96.863281 287.050781 94.460938 285.679688 92.097656 C 284.308594 89.730469 282.867188 87.414062 281.351562 85.140625 C 279.832031 82.867188 278.246094 80.644531 276.589844 78.472656 C 274.929688 76.300781 273.207031 74.183594 271.414062 72.121094 C 269.621094 70.0625 267.765625 68.058594 265.847656 66.113281 C 263.925781 64.167969 261.949219 62.285156 259.910156 60.46875 C 257.871094 58.648438 255.777344 56.894531 253.625 55.210938 C 251.476562 53.523438 249.273438 51.90625 247.023438 50.359375 C 244.769531 48.8125 242.472656 47.339844 240.125 45.941406 C 237.777344 44.539062 235.390625 43.214844 232.960938 41.964844 C 230.53125 40.71875 228.0625 39.546875 225.558594 38.453125 C 223.054688 37.363281 220.519531 36.347656 217.949219 35.417969 C 215.382812 34.488281 212.785156 33.636719 210.164062 32.871094 C 207.539062 32.105469 204.898438 31.421875 202.230469 30.820312 C 199.566406 30.222656 196.882812 29.710938 194.183594 29.28125 C 191.484375 28.851562 188.777344 28.507812 186.054688 28.253906 C 183.335938 27.996094 180.609375 27.824219 177.878906 27.742188 C 175.148438 27.65625 172.417969 27.660156 169.6875 27.75 C 166.957031 27.839844 164.230469 28.015625 161.511719 28.277344 C 158.792969 28.539062 156.082031 28.886719 153.386719 29.320312 C 150.6875 29.757812 148.007812 30.273438 145.34375 30.878906 C 142.679688 31.484375 140.035156 32.171875 137.414062 32.945312 C 134.792969 33.714844 132.199219 34.570312 129.632812 35.507812 C 127.066406 36.445312 124.53125 37.460938 122.03125 38.558594 C 119.527344 39.65625 117.0625 40.832031 114.636719 42.085938 C 112.207031 43.339844 109.824219 44.667969 107.480469 46.074219 C 105.136719 47.480469 102.839844 48.957031 100.589844 50.507812 C 98.339844 52.058594 96.144531 53.679688 93.996094 55.371094 C 91.851562 57.0625 89.757812 58.816406 87.722656 60.640625 C 85.691406 62.464844 83.714844 64.351562 81.800781 66.296875 C 79.882812 68.246094 78.03125 70.253906 76.242188 72.320312 C 74.457031 74.386719 72.734375 76.507812 71.082031 78.683594 C 69.429688 80.855469 67.84375 83.082031 66.332031 85.359375 C 64.820312 87.632812 63.382812 89.953125 62.015625 92.320312 C 60.652344 94.6875 59.363281 97.097656 58.152344 99.546875 C 56.941406 101.992188 55.804688 104.476562 54.753906 107 C 53.699219 109.519531 52.722656 112.070312 51.832031 114.652344 C 50.9375 117.234375 50.128906 119.84375 49.402344 122.476562 C 48.675781 125.109375 48.03125 127.765625 47.472656 130.441406 C 46.914062 133.113281 46.441406 135.804688 46.054688 138.507812 C 45.664062 141.214844 45.363281 143.925781 45.148438 146.652344 C 44.933594 149.375 44.804688 152.101562 44.761719 154.835938 C 44.71875 157.566406 44.761719 160.296875 44.894531 163.027344 C 45.023438 165.753906 45.242188 168.476562 45.542969 171.191406 C 45.847656 173.90625 46.238281 176.609375 46.710938 179.300781 C 47.1875 181.992188 47.746094 184.664062 48.390625 187.320312 C 49.035156 189.976562 49.761719 192.609375 50.574219 195.214844 C 51.386719 197.824219 52.28125 200.40625 53.253906 202.957031 C 54.230469 205.511719 55.285156 208.027344 56.421875 210.515625 C 57.554688 213 58.769531 215.445312 60.058594 217.855469 C 61.351562 220.261719 62.714844 222.628906 64.15625 224.949219 C 65.597656 227.273438 67.109375 229.546875 68.695312 231.769531 C 70.277344 233.996094 71.933594 236.167969 73.65625 238.289062 C 75.378906 240.410156 77.164062 242.476562 79.019531 244.484375 C 80.871094 246.488281 82.789062 248.4375 84.765625 250.320312 C 86.742188 252.207031 88.777344 254.027344 90.871094 255.785156 C 92.964844 257.542969 95.109375 259.230469 97.308594 260.851562 C 99.507812 262.472656 101.757812 264.019531 104.054688 265.496094 C 106.355469 266.976562 108.699219 268.378906 111.085938 269.707031 C 113.472656 271.035156 115.898438 272.289062 118.367188 273.464844 C 120.832031 274.640625 123.332031 275.734375 125.871094 276.75 C 128.40625 277.765625 130.972656 278.703125 133.566406 279.554688 C 136.164062 280.410156 138.78125 281.179688 141.425781 281.867188 C 144.070312 282.554688 146.734375 283.15625 149.417969 283.675781 C 152.101562 284.191406 154.796875 284.625 157.507812 284.972656 C 160.21875 285.320312 162.9375 285.578125 165.664062 285.753906 C 168.390625 285.929688 171.117188 286.015625 173.851562 286.019531 C 176.582031 286.019531 179.3125 285.933594 182.039062 285.761719 C 184.765625 285.589844 187.484375 285.332031 190.195312 284.988281 C 192.90625 284.644531 195.601562 284.214844 198.285156 283.699219 C 200.96875 283.183594 203.632812 282.582031 206.277344 281.898438 C 208.921875 281.214844 211.542969 280.445312 214.140625 279.59375 C 216.738281 278.742188 219.304688 277.8125 221.839844 276.796875 C 224.378906 275.785156 226.878906 274.691406 229.347656 273.519531 C 231.816406 272.34375 234.246094 271.097656 236.632812 269.769531 C 239.023438 268.441406 241.367188 267.042969 243.664062 265.566406 C 245.964844 264.089844 248.214844 262.542969 250.417969 260.925781 L 321.546875 354.996094 C 322.039062 355.652344 322.59375 356.253906 323.207031 356.800781 C 323.820312 357.34375 324.480469 357.828125 325.1875 358.242188 C 325.894531 358.660156 326.636719 359 327.410156 359.269531 C 328.183594 359.542969 328.976562 359.734375 329.789062 359.847656 C 330.605469 359.960938 331.417969 359.992188 332.238281 359.945312 C 333.058594 359.898438 333.863281 359.773438 334.660156 359.566406 C 335.453125 359.359375 336.21875 359.078125 336.957031 358.722656 C 337.695312 358.367188 338.394531 357.941406 339.050781 357.445312 C 339.703125 356.953125 340.304688 356.398438 340.851562 355.785156 C 341.394531 355.171875 341.878906 354.511719 342.292969 353.804688 C 342.710938 353.097656 343.050781 352.359375 343.320312 351.582031 C 343.59375 350.808594 343.785156 350.015625 343.898438 349.203125 C 344.011719 348.390625 344.042969 347.574219 343.996094 346.753906 C 343.949219 345.933594 343.824219 345.128906 343.617188 344.332031 C 343.410156 343.539062 343.128906 342.773438 342.773438 342.035156 C 342.417969 341.296875 341.992188 340.597656 341.496094 339.945312 Z M 65.679688 156.832031 C 65.679688 155.058594 65.722656 153.289062 65.808594 151.519531 C 65.894531 149.75 66.027344 147.984375 66.199219 146.21875 C 66.371094 144.457031 66.589844 142.699219 66.847656 140.945312 C 67.109375 139.191406 67.410156 137.445312 67.757812 135.710938 C 68.101562 133.972656 68.492188 132.242188 68.921875 130.523438 C 69.351562 128.804688 69.824219 127.097656 70.335938 125.402344 C 70.851562 123.707031 71.40625 122.023438 72.003906 120.355469 C 72.601562 118.6875 73.238281 117.035156 73.914062 115.398438 C 74.59375 113.757812 75.3125 112.140625 76.070312 110.539062 C 76.828125 108.9375 77.621094 107.355469 78.457031 105.789062 C 79.292969 104.226562 80.164062 102.6875 81.078125 101.167969 C 81.988281 99.648438 82.933594 98.148438 83.917969 96.675781 C 84.902344 95.203125 85.921875 93.753906 86.980469 92.332031 C 88.035156 90.90625 89.125 89.511719 90.25 88.140625 C 91.371094 86.773438 92.527344 85.429688 93.71875 84.117188 C 94.910156 82.804688 96.128906 81.519531 97.382812 80.269531 C 98.636719 79.015625 99.917969 77.792969 101.230469 76.601562 C 102.542969 75.414062 103.886719 74.253906 105.253906 73.132812 C 106.625 72.007812 108.019531 70.917969 109.445312 69.863281 C 110.867188 68.804688 112.316406 67.785156 113.789062 66.800781 C 115.261719 65.816406 116.757812 64.867188 118.277344 63.957031 C 119.796875 63.046875 121.339844 62.171875 122.902344 61.335938 C 124.464844 60.503906 126.046875 59.707031 127.648438 58.949219 C 129.25 58.191406 130.871094 57.472656 132.507812 56.792969 C 134.144531 56.117188 135.796875 55.476562 137.464844 54.882812 C 139.132812 54.285156 140.816406 53.726562 142.511719 53.214844 C 144.207031 52.699219 145.914062 52.226562 147.632812 51.796875 C 149.351562 51.367188 151.082031 50.976562 152.820312 50.632812 C 154.554688 50.285156 156.300781 49.984375 158.054688 49.722656 C 159.808594 49.460938 161.566406 49.246094 163.328125 49.070312 C 165.09375 48.898438 166.859375 48.765625 168.628906 48.679688 C 170.398438 48.59375 172.167969 48.550781 173.941406 48.550781 C 175.714844 48.550781 177.484375 48.59375 179.253906 48.679688 C 181.023438 48.765625 182.792969 48.898438 184.554688 49.070312 C 186.316406 49.246094 188.074219 49.460938 189.828125 49.722656 C 191.582031 49.980469 193.328125 50.285156 195.066406 50.628906 C 196.804688 50.976562 198.53125 51.363281 200.25 51.792969 C 201.96875 52.222656 203.675781 52.695312 205.371094 53.210938 C 207.066406 53.726562 208.75 54.28125 210.417969 54.878906 C 212.085938 55.472656 213.738281 56.113281 215.375 56.789062 C 217.015625 57.46875 218.632812 58.1875 220.234375 58.945312 C 221.835938 59.699219 223.417969 60.496094 224.980469 61.332031 C 226.542969 62.167969 228.085938 63.042969 229.605469 63.953125 C 231.125 64.863281 232.621094 65.8125 234.097656 66.796875 C 235.570312 67.78125 237.019531 68.800781 238.441406 69.855469 C 239.863281 70.910156 241.261719 72 242.628906 73.125 C 244 74.25 245.339844 75.40625 246.65625 76.597656 C 247.96875 77.785156 249.25 79.007812 250.503906 80.261719 C 251.757812 81.511719 252.976562 82.796875 254.167969 84.109375 C 255.359375 85.421875 256.515625 86.765625 257.640625 88.132812 C 258.761719 89.503906 259.851562 90.898438 260.910156 92.324219 C 261.964844 93.746094 262.984375 95.195312 263.96875 96.667969 C 264.953125 98.140625 265.902344 99.636719 266.8125 101.15625 C 267.722656 102.679688 268.597656 104.21875 269.429688 105.78125 C 270.265625 107.34375 271.0625 108.925781 271.820312 110.527344 C 272.578125 112.128906 273.296875 113.75 273.972656 115.386719 C 274.652344 117.023438 275.289062 118.675781 275.886719 120.34375 C 276.484375 122.015625 277.039062 123.695312 277.554688 125.390625 C 278.066406 127.085938 278.539062 128.792969 278.96875 130.515625 C 279.402344 132.234375 279.789062 133.960938 280.132812 135.699219 C 280.480469 137.4375 280.78125 139.183594 281.042969 140.933594 C 281.304688 142.6875 281.519531 144.445312 281.695312 146.210938 C 281.867188 147.972656 281.996094 149.738281 282.085938 151.507812 C 282.171875 153.28125 282.214844 155.050781 282.214844 156.820312 C 282.214844 158.59375 282.171875 160.363281 282.082031 162.136719 C 281.996094 163.90625 281.867188 165.671875 281.691406 167.433594 C 281.519531 169.199219 281.300781 170.957031 281.042969 172.710938 C 280.78125 174.460938 280.480469 176.207031 280.132812 177.945312 C 279.785156 179.683594 279.398438 181.410156 278.96875 183.128906 C 278.539062 184.847656 278.066406 186.554688 277.550781 188.253906 C 277.035156 189.949219 276.480469 191.628906 275.882812 193.296875 C 275.285156 194.964844 274.648438 196.621094 273.96875 198.257812 C 273.292969 199.894531 272.574219 201.511719 271.816406 203.113281 C 271.058594 204.714844 270.261719 206.296875 269.425781 207.863281 C 268.589844 209.425781 267.71875 210.964844 266.804688 212.484375 C 265.894531 214.003906 264.949219 215.5 263.964844 216.976562 C 262.976562 218.449219 261.957031 219.894531 260.902344 221.320312 C 259.847656 222.742188 258.757812 224.140625 257.632812 225.507812 C 256.507812 226.878906 255.351562 228.21875 254.160156 229.53125 C 252.972656 230.84375 251.75 232.128906 250.496094 233.382812 C 249.242188 234.632812 247.960938 235.855469 246.648438 237.046875 C 245.332031 238.234375 243.992188 239.390625 242.621094 240.515625 C 241.253906 241.640625 239.855469 242.730469 238.433594 243.785156 C 237.007812 244.839844 235.5625 245.859375 234.085938 246.84375 C 232.613281 247.828125 231.117188 248.777344 229.597656 249.6875 C 228.078125 250.597656 226.535156 251.472656 224.972656 252.304688 C 223.410156 253.140625 221.828125 253.9375 220.226562 254.695312 C 218.625 255.453125 217.003906 256.171875 215.367188 256.847656 C 213.730469 257.527344 212.078125 258.164062 210.410156 258.761719 C 208.742188 259.355469 207.058594 259.914062 205.363281 260.425781 C 203.667969 260.941406 201.960938 261.414062 200.242188 261.84375 C 198.519531 262.273438 196.792969 262.660156 195.054688 263.007812 C 193.316406 263.351562 191.570312 263.65625 189.820312 263.914062 C 188.066406 264.175781 186.308594 264.390625 184.542969 264.566406 C 182.78125 264.738281 181.015625 264.867188 179.246094 264.953125 C 177.472656 265.042969 175.703125 265.085938 173.929688 265.085938 C 172.160156 265.085938 170.390625 265.039062 168.621094 264.953125 C 166.851562 264.867188 165.085938 264.734375 163.320312 264.5625 C 161.558594 264.386719 159.800781 264.171875 158.046875 263.910156 C 156.296875 263.652344 154.550781 263.347656 152.8125 263.003906 C 151.074219 262.65625 149.347656 262.269531 147.628906 261.835938 C 145.910156 261.40625 144.203125 260.933594 142.507812 260.417969 C 140.8125 259.90625 139.132812 259.351562 137.464844 258.753906 C 135.796875 258.15625 134.144531 257.519531 132.507812 256.839844 C 130.871094 256.164062 129.25 255.445312 127.652344 254.6875 C 126.050781 253.929688 124.46875 253.132812 122.90625 252.296875 C 121.34375 251.460938 119.800781 250.589844 118.28125 249.679688 C 116.761719 248.769531 115.265625 247.820312 113.792969 246.835938 C 112.320312 245.851562 110.871094 244.832031 109.449219 243.777344 C 108.027344 242.722656 106.628906 241.632812 105.261719 240.507812 C 103.890625 239.382812 102.550781 238.226562 101.238281 237.039062 C 99.925781 235.847656 98.644531 234.625 97.390625 233.375 C 96.136719 232.121094 94.917969 230.839844 93.726562 229.527344 C 92.535156 228.214844 91.378906 226.871094 90.257812 225.503906 C 89.132812 224.132812 88.042969 222.738281 86.988281 221.3125 C 85.933594 219.890625 84.914062 218.445312 83.929688 216.96875 C 82.945312 215.496094 81.996094 214 81.085938 212.480469 C 80.175781 210.960938 79.300781 209.421875 78.464844 207.859375 C 77.632812 206.296875 76.835938 204.714844 76.078125 203.113281 C 75.320312 201.511719 74.601562 199.894531 73.921875 198.257812 C 73.246094 196.621094 72.609375 194.96875 72.011719 193.300781 C 71.414062 191.632812 70.859375 189.949219 70.34375 188.253906 C 69.828125 186.558594 69.355469 184.851562 68.925781 183.132812 C 68.496094 181.414062 68.109375 179.6875 67.761719 177.949219 C 67.417969 176.210938 67.113281 174.46875 66.851562 172.714844 C 66.59375 170.964844 66.375 169.207031 66.203125 167.441406 C 66.027344 165.679688 65.898438 163.914062 65.808594 162.144531 C 65.722656 160.375 65.679688 158.605469 65.679688 156.832031 Z M 65.679688 156.832031 " fill-opacity="1" fill-rule="nonzero"/></g></svg>